{
  "accessors": [
    {
      "bufferView": 0,
      "byteOffset": 0,
      "componentType": 5123,
      "count": 858,
      "max": [
        229.0
      ],
      "min": [
        0.0
      ],
      "name": "buffer-0-group-0-mesh-0-indices",
      "type": "SCALAR"
    },
    {
      "bufferView": 1,
      "byteOffset": 0,
      "componentType": 5126,
      "count": 230,
      "max": [
        11.641132354736328,
        3.3345038890838623,
        0.13042500615119934
      ],
      "min": [
        6.726513862609863,
        -1.2936609983444214,
        -4.784193992614746
      ],
      "name": "buffer-0-group-0-mesh-0-position",
      "type": "VEC3"
    },
    {
      "bufferView": 1,
      "byteOffset": 2760,
      "componentType": 5126,
      "count": 230,
      "max": [
        0.8583915829658508,
        0.729830265045166,
        0.8583915829658508
      ],
      "min": [
        -0.8583915829658508,
        -0.6857030987739563,
        -0.8583915829658508
      ],
      "name": "buffer-0-group-0-mesh-0-normal",
      "type": "VEC3"
    },
    {
      "bufferView": 2,
      "byteOffset": 0,
      "componentType": 5126,
      "count": 230,
      "max": [
        1.0,
        -0.009999999776482582
      ],
      "min": [
        0.0,
        -1.0
      ],
      "name": "buffer-0-group-0-mesh-0-texcoord",
      "type": "VEC2"
    },
    {
      "bufferView": 0,
      "byteOffset": 1716,
      "componentType": 5123,
      "count": 282,
      "max": [
        97.0
      ],
      "min": [
        0.0
      ],
      "name": "buffer-0-group-1-mesh-0-indices",
      "type": "SCALAR"
    },
    {
      "bufferView": 1,
      "byteOffset": 5520,
      "componentType": 5126,
      "count": 98,
      "max": [
        11.641132354736328,
        1.9723069667816162,
        0.13042500615119934
      ],
      "min": [
        6.726513862609863,
        1.6161739826202393,
        -4.784193992614746
      ],
      "name": "buffer-0-group-1-mesh-0-position",
      "type": "VEC3"
    },
    {
      "bufferView": 1,
      "byteOffset": 6696,
      "componentType": 5126,
      "count": 98,
      "max": [
        0.8583915829658508,
        0.6857030987739563,
        0.8583915829658508
      ],
      "min": [
        -0.8583915829658508,
        -0.5425331592559814,
        -0.8583915829658508
      ],
      "name": "buffer-0-group-1-mesh-0-normal",
      "type": "VEC3"
    },
    {
      "bufferView": 2,
      "byteOffset": 1840,
      "componentType": 5126,
      "count": 98,
      "max": [
        1.0,
        -0.009999999776482582
      ],
      "min": [
        0.0,
        -1.0
      ],
      "name": "buffer-0-group-1-mesh-0-texcoord",
      "type": "VEC2"
    }
  ],
  "asset": {
    "generator": "Obj2GltfConverter",
    "version": "2.0"
  },
  "bufferViews": [
    {
      "buffer": 0,
      "byteLength": 2280,
      "byteOffset": 0,
      "name": "buffer-0-bufferview-ushort",
      "target": 34963
    },
    {
      "buffer": 0,
      "byteLength": 7872,
      "byteOffset": 2280,
      "byteStride": 12,
      "name": "buffer-0-bufferview-vec3",
      "target": 34962
    },
    {
      "buffer": 0,
      "byteLength": 2624,
      "byteOffset": 10152,
      "byteStride": 8,
      "name": "buffer-0-bufferview-vec2",
      "target": 34962
    }
  ],
  "buffers": [
    {
      "byteLength": 12776,
      "name": "buffer-0",
      "uri": "pipe.bin"
    }
  ],
  "materials": [
    {
      "alphaMode": "OPAQUE",
      "doubleSided": true,
      "name": "Material.005",
      "pbrMetallicRoughness": {
        "baseColorFactor": [
          0.038305,
          0.595461,
          0.001218,
          1.0
        ],
        "metallicFactor": 0.0,
        "roughnessFactor": 1.0
      }
    },
    {
      "alphaMode": "OPAQUE",
      "doubleSided": true,
      "name": "Material.006",
      "pbrMetallicRoughness": {
        "baseColorFactor": [
          0.016882,
          0.220257,
          7.76E-4,
          1.0
        ],
        "metallicFactor": 0.0,
        "roughnessFactor": 0.4979543302247798
      }
    }
  ],
  "meshes": [
    {
      "name": "buffer-0-mesh-0",
      "primitives": [
        {
          "attributes": {
            "POSITION": 1,
            "NORMAL": 2,
            "TEXCOORD_0": 3
          },
          "indices": 0,
          "material": 0,
          "mode": 4
        },
        {
          "attributes": {
            "POSITION": 5,
            "NORMAL": 6,
            "TEXCOORD_0": 7
          },
          "indices": 4,
          "material": 1,
          "mode": 4
        }
      ]
    }
  ],
  "nodes": [
    {
      "mesh": 0,
      "name": "node-0"
    }
  ],
  "scenes": [
    {
      "name": "scene-0",
      "nodes": [
        0
      ]
    }
  ]
}