{
  "accessors": [
    {
      "bufferView": 1,
      "componentType": 5126,
      "count": 637,
      "max": [
        6.286250114440918,
        4.919069766998291,
        4.9212799072265625
      ],
      "min": [
        -3.5563099384307861,
        -4.919069766998291,
        -4.9212799072265625
      ],
      "type": "VEC3"
    },
    {
      "bufferView": 1,
      "byteOffset": 7644,
      "componentType": 5126,
      "count": 637,
      "max": [
        0.99564731121063232,
        0.99564731121063232,
        1
      ],
      "min": [
        -0.99564731121063232,
        -0.99564731121063232,
        -1
      ],
      "type": "VEC3"
    },
    {
      "bufferView": 0,
      "componentType": 5125,
      "count": 3444,
      "max": [
        636
      ],
      "min": [
        0
      ],
      "type": "SCALAR"
    }
  ],
  "asset": {
    "extras": {
      "author": "torchwurm (https://sketchfab.com/torchwurm)",
      "license": "CC-BY-4.0 (http://creativecommons.org/licenses/by/4.0/)",
      "source": "https://sketchfab.com/models/c49858b084e74f35b8631d9e2c2c2971",
      "title": "Super Mario Bros - Coin"
    },
    "generator": "Sketchfab-3.29.4-rc3",
    "version": "2.0"
  },
  "bufferViews": [
    {
      "buffer": 0,
      "byteLength": 13776,
      "byteOffset": 0,
      "name": "floatBufferViews",
      "target": 34963
    },
    {
      "buffer": 0,
      "byteLength": 15288,
      "byteOffset": 13776,
      "byteStride": 12,
      "name": "floatBufferViews",
      "target": 34962
    }
  ],
  "buffers": [
    {
      "byteLength": 29064,
      "uri": "scene.bin"
    }
  ],
  "materials": [
    {
      "doubleSided": true,
      "emissiveFactor": [
        0,
        0,
        0
      ],
      "name": "Material",
      "pbrMetallicRoughness": {
        "baseColorFactor": [
          0.80000007149999997,
          0.70594429970000006,
          0,
          1
        ],
        "metallicFactor": 0,
        "roughnessFactor": 0.59999999999999998
      }
    }
  ],
  "meshes": [
    {
      "name": "Cylinder",
      "primitives": [
        {
          "attributes": {
            "NORMAL": 1,
            "POSITION": 0
          },
          "indices": 2,
          "material": 0,
          "mode": 4
        }
      ]
    }
  ],
  "nodes": [
    {
      "children": [
        1
      ],
      "name": "RootNode (gltf orientation matrix)",
      "rotation": [
        -0.70710678118654746,
        -0,
        -0,
        0.70710678118654757
      ]
    },
    {
      "children": [
        2
      ],
      "name": "RootNode (model correction matrix)"
    },
    {
      "children": [
        3
      ],
      "name": "Root"
    },
    {
      "children": [
        4
      ],
      "matrix": [
        0,
        0,
        -1,
        0,
        0,
        1,
        0,
        0,
        0.28062000000000004,
        0,
        0,
        0,
        0,
        0,
        1.3685500000000002,
        1
      ],
      "name": "Cylinder"
    },
    {
      "mesh": 0,
      "name": "Cylinder"
    }
  ],
  "scene": 0,
  "scenes": [
    {
      "name": "OSG_Scene",
      "nodes": [
        0
      ]
    }
  ]
}

